<svg width="116" height="64" viewBox="0 0 116 64" fill="none" xmlns="http://www.w3.org/2000/svg">
<path d="M39.279 19.8459C39.0052 20.9923 39.0384 25.5609 39.2407 26.7798C39.3617 27.5175 39.1473 28.913 39.1472 29.7296C39.1469 32.8211 39.1405 35.914 39.1403 39.0056C39.1604 41.6033 38.9875 44.6283 39.437 47.1652C39.5783 47.9623 40.3879 49.27 41.0552 49.7461C42.1123 50.5005 43.0904 50.7738 44.3247 51.0487C44.3712 48.9146 44.2703 46.6551 44.3469 44.5611C46.3287 44.6011 48.3667 44.5704 50.3568 44.5811C50.4003 46.5796 50.416 48.5786 50.4039 50.5775C50.4033 52.002 50.2714 54.0345 50.6132 55.369C51.2808 57.9758 54.6511 59.0661 56.5903 56.9623C57.076 56.4337 57.4144 55.7874 57.5718 55.0876C57.7683 54.1886 57.7221 51.2403 57.7022 50.1589C57.6707 48.4498 57.7297 46.471 57.6675 44.7836C57.6643 44.7123 57.6599 44.6411 57.6541 44.5699C59.3633 44.6431 61.9334 44.5718 63.7022 44.5603C63.6846 45.3128 63.7617 46.1263 63.7942 46.889C63.8262 47.6516 63.7472 48.7694 63.8406 49.4923L63.9477 49.5696C64.3404 49.4333 64.7262 48.5635 64.9968 48.1835C66.2739 46.3893 68.1035 44.9728 70.2644 44.4341C72.5675 43.9335 77.2871 43.982 78.9356 46.0161C78.4564 46.7291 77.1969 48.938 76.8893 49.7312C74.9194 49.1455 73.6523 48.7318 71.7276 49.7385C69.6569 50.8218 69.0668 53.8201 70.1592 55.7588C71.6073 58.3285 74.3827 58.4377 76.8123 57.2923C77.1668 57.808 77.3628 58.3616 77.6817 58.8783C78.1157 59.5808 78.4821 60.3397 78.8949 61.0449L78.7439 61.5818C75.1844 63.183 72.788 63.593 68.9491 62.2046C67.2874 61.6035 65.5918 60.2708 64.7694 58.7098C64.5283 58.2516 64.202 57.4184 63.9414 57.0577C63.6658 57.2126 63.2468 58.5056 63.0683 58.8769C61.316 62.5136 56.8682 63.143 53.2608 63.0161C50.8036 62.9305 48.3369 62.4306 46.4668 60.7382C45.3026 59.6846 44.839 58.2052 44.511 56.7433C44.3739 57.5441 44.2686 61.3266 44.4207 62.1051C39.4525 62.4408 34.0273 62.4382 30.0902 58.9583C26.442 55.7336 25.0284 51.0805 24.6636 46.3653C24.6034 45.5868 24.4526 40.3946 24.6388 40.0505C24.3532 38.125 24.4289 36.1105 24.4405 34.1663C24.4452 33.4008 24.7175 33.0596 25.2514 32.5516C26.3031 31.5508 27.4366 30.6307 28.4787 29.6198C30.5981 27.5503 32.7477 25.512 34.927 23.5054C36.0348 22.47 37.1565 21.425 38.2766 20.4009C38.4647 20.2289 39.0294 19.9663 39.279 19.8459Z" fill="#FEFEFE"></path>
<path d="M39.279 19.8459C39.0052 20.9923 39.0384 25.5609 39.2407 26.7798C36.5526 28.9089 34.9646 30.6414 32.4933 32.894L26.9389 38.0198C26.2437 38.6563 25.2736 39.4175 24.6388 40.0505C24.3532 38.1249 24.4289 36.1105 24.4405 34.1663C24.4452 33.4008 24.7175 33.0596 25.2514 32.5516C26.3031 31.5508 27.4366 30.6307 28.4787 29.6198C30.5981 27.5503 32.7477 25.512 34.927 23.5054C36.0348 22.47 37.1565 21.425 38.2766 20.4009C38.4647 20.2289 39.0294 19.9663 39.279 19.8459Z" fill="#FFC000"></path>
<path d="M28.4364 14.8986C28.584 12.4197 28.4442 9.91087 28.5002 7.42724C28.51 6.99262 28.494 6.42968 28.7832 6.07608C29.4052 5.3156 30.1681 4.6611 30.8544 3.95767C31.2696 3.53811 31.9418 2.82668 32.5573 2.69138C33.4991 2.60962 34.5127 2.64311 35.46 2.65005L40.5921 2.68111L51.2571 2.64753C52.1761 2.64689 53.0997 2.58342 54.0213 2.6202C54.3052 2.63153 54.6531 2.62434 54.6988 2.96984C53.1305 4.23269 51.2187 6.17555 49.7227 7.58406L42.013 14.7562C40.9231 15.7872 38.7881 18.0016 37.7363 18.7732C36.7117 19.4757 35.0097 21.2266 34.0073 22.1549C32.381 23.6609 30.7729 25.1184 29.156 26.6544C28.0615 27.6942 26.4862 29.2736 25.1841 30.0307C24.7816 30.2647 23.4032 30.2989 22.8933 30.3045C19.6354 30.3404 16.3968 30.246 13.1365 30.2567L7.18734 30.2602C6.53381 30.2601 3.19575 30.3656 2.84229 30.0223L2.9049 29.9281C3.48307 29.7323 3.99583 29.0141 4.44628 28.5878L8.50155 24.7317C9.36566 23.9181 10.3215 23.1428 11.2159 22.3121C12.1633 21.4558 13.1334 20.3651 14.0673 19.5239C14.977 18.7044 20.2699 14.2099 20.4783 13.2917L20.4869 13.2523C20.7994 11.8708 20.3484 3.09726 20.7028 2.65854C22.5119 2.54787 25.4122 2.61574 27.2006 2.73606C27.158 6.59312 27.0922 11.0955 27.2928 14.9169L28.4364 14.8986Z" fill="#FEFEFE"></path>
<path d="M47.5957 12.1823C47.9741 11.2582 48.6256 10.8365 49.3331 10.1625C51.7884 7.8235 54.3387 5.69644 56.6939 3.24256C57.5462 2.35457 58.9726 2.10334 60.1364 2.62331C60.8914 3.05694 61.984 4.25421 62.6026 4.93014C63.2784 5.33915 64.4466 6.512 65.0366 7.09631C65.9843 8.05206 66.9476 8.99194 67.9266 9.91544L84.6295 25.3438C85.4594 26.1078 89.2983 29.3964 89.4937 30.1136L89.4498 30.1868C89.0415 30.2557 87.3653 30.2416 86.8824 30.247C84.7729 30.2746 82.6633 30.2776 80.5538 30.256H72.0398C70.7583 30.2581 69.4699 30.2733 68.1897 30.2704C67.9585 30.2699 66.962 30.1558 66.8242 30.0402C66.3463 29.6381 65.8289 29.1478 65.3698 28.7168L62.4069 25.8884C60.3565 23.918 58.1286 22.0808 56.1185 20.0431C54.9476 18.8563 53.4969 17.831 52.3362 16.6049C51.9652 16.2365 51.4545 15.8982 51.1506 15.4941C51.1081 15.4426 51.1184 15.4571 51.0684 15.4201C49.9914 14.6216 48.8564 13.6523 47.9002 12.7134C47.7989 12.6139 47.6536 12.3084 47.5957 12.1823Z" fill="#FEFEFE"></path>
<path d="M47.5957 12.1823C47.9741 11.2582 48.6256 10.8365 49.3331 10.1625C51.7884 7.8235 54.3387 5.69644 56.6939 3.24256C57.5462 2.35457 58.9726 2.10334 60.1364 2.62331C60.8914 3.05694 61.984 4.25421 62.6026 4.93014C62.3936 5.23414 60.7608 6.59675 60.3566 6.96319C57.2913 9.743 54.2785 12.8132 51.1506 15.4941C51.1081 15.4426 51.1184 15.4571 51.0684 15.4201C49.9914 14.6216 48.8564 13.6523 47.9002 12.7134C47.7989 12.6139 47.6536 12.3084 47.5957 12.1823Z" fill="#FFC000"></path>
<path d="M99.9465 56.5146C100.957 57.4871 103.623 58.6116 105.071 58.4649C105.529 58.4186 106.853 57.7353 106.598 57.1735C105.959 55.8714 103.747 55.3049 102.375 54.7306C98.9794 53.4058 97.5958 49.6677 99.7548 46.6224C102.062 43.3676 109.572 43.5943 112.442 45.6623C111.826 46.6247 111.373 47.9386 110.777 48.9376C110.699 49.0687 110.564 49.3291 110.423 49.315C109.825 49.2473 109.235 48.9193 108.667 48.7314C107.81 48.4487 106.229 48.3678 105.388 48.5925C105.008 48.8001 104.504 49.1252 104.431 49.5863C104.769 50.6004 107.283 51.1191 108.155 51.4847C110.054 52.2809 112.128 53.3305 112.713 55.4801C113.077 56.8174 112.901 58.6466 112.203 59.8258C111.27 61.3844 109.404 62.3873 107.646 62.7712C104.107 63.5437 100.868 62.7181 97.8282 60.9871C97.8244 61.4832 97.7812 62.0117 97.7699 62.5193C96.1878 62.6174 93.559 62.5481 91.9161 62.5124C91.8716 61.872 91.9349 61.0198 91.9104 60.325C90.2613 61.8853 88.9459 62.7343 86.552 62.9887C84.3604 63.1768 82.0899 62.5568 80.4213 61.1509C76.0312 57.4531 75.6316 51.0091 79.53 46.7806C81.1128 45.0632 82.5095 44.3598 84.802 44.2138C86.4324 44.0789 88.5281 44.2739 89.9675 45.1251C90.5544 45.472 91.2121 46.0337 91.8334 46.2917L91.8609 46.303C91.8703 45.6766 91.8829 45.1638 91.9399 44.5356C92.4103 44.5866 93.3924 44.5599 93.901 44.5618L97.7117 44.5749C97.8557 45.7781 97.7962 47.8096 97.7956 49.0961L97.8163 56.051C97.8175 56.8104 97.7718 59.0088 97.9184 59.5753L97.9935 59.6068C98.3255 59.3951 99.6465 57.0386 99.9465 56.5146ZM88.4711 57.7441C90.7817 57.2833 92.2794 55.0383 91.8133 52.7332C91.3467 50.4281 89.0944 48.9382 86.785 49.4077C84.4819 49.8759 82.9937 52.1164 83.4585 54.4154C83.9238 56.7144 86.1662 58.2037 88.4711 57.7441Z" fill="#FEFEFE"></path>
<path d="M47.8544 25.6842C47.0337 25.6698 45.9214 25.7086 45.1094 25.5969C45.0329 25.598 44.938 25.4798 44.919 25.4109C44.4906 23.8542 45.4738 22.1444 46.9057 21.494C47.2174 21.3525 48.2026 20.9624 48.4704 21.0602C48.8372 21.6489 48.7544 23.9704 48.7229 24.7395C48.6627 25.136 48.6548 25.3479 48.6469 25.7451C48.3864 25.7254 48.1131 25.7093 47.8544 25.6842Z" fill="#FFC000"></path>
<path d="M47.751 26.5602C48.0844 26.5394 48.3842 26.5215 48.7165 26.4775C48.7008 26.7812 48.6687 27.1108 48.7211 27.4076C48.7629 28.5029 48.7179 29.221 48.6041 30.2889C47.8028 30.3339 45.8104 30.2569 45.0334 30.1595C44.7284 29.4866 44.6401 27.2069 45.0173 26.65C45.2838 26.4788 47.2865 26.5552 47.751 26.5602Z" fill="#FFC000"></path>
<path d="M49.6785 21.1404C49.9224 21.0363 50.4023 21.1906 50.6996 21.3251C52.1258 21.9708 53.4805 23.6068 53.1719 25.2431C53.1493 25.363 52.9502 25.5162 52.8378 25.5369C52.2217 25.6688 50.802 25.6786 50.2048 25.6263C49.979 25.5969 49.7902 25.6238 49.5479 25.578C49.5921 24.7273 49.5484 23.5256 49.5498 22.6406C49.6147 22.3403 49.7183 21.4302 49.6785 21.1404Z" fill="#FFC000"></path>
<path d="M50.3602 26.5105C51.0611 26.5893 52.5226 26.4189 52.9995 26.6367C53.2215 26.9396 53.2713 29.9914 52.7591 30.1467C51.909 30.4044 50.7423 30.1358 49.755 30.2617C49.6033 29.2164 49.5933 28.4337 49.5474 27.4002C49.5648 27.1002 49.596 26.8236 49.6298 26.526C49.9234 26.5604 50.0633 26.5402 50.3602 26.5105Z" fill="#FFC000"></path>
<path d="M63.4869 37.2608C64.4972 37.2072 65.2269 37.2566 65.8632 38.1101C66.4426 40.9995 65.1724 40.22 64.6588 41.2698C64.3324 41.2896 63.8815 41.2591 63.5457 41.2461C62.9808 40.8415 62.3232 40.4564 62.1503 39.7426C61.992 39.0896 62.2134 38.2314 62.554 37.6619C62.8912 37.5017 63.1342 37.3909 63.4869 37.2608ZM64.3024 41.0233C64.5222 40.8465 65.2908 40.1746 65.4555 39.994C65.5425 39.2158 65.587 38.8668 65.3772 38.1018C64.727 37.7718 64.6531 37.6739 63.9347 37.6468C62.0702 37.8642 62.29 40.3101 64.3024 41.0233Z" fill="#FEFEFE"></path>
<path d="M91.7473 37.2647C92.2139 37.2442 92.725 37.2348 93.1497 37.4329L93.1904 37.4519C93.5142 37.6029 93.7942 37.9296 94.0485 38.1901C94.2007 40.1189 94.1111 40.1049 92.6742 41.2572C91.5769 41.2884 90.938 40.8851 90.296 40.0127C90.1638 38.5964 90.3066 37.7249 91.7473 37.2647ZM90.7726 39.9125C91.0439 40.1617 91.8744 40.8649 92.2258 40.8409C92.9054 40.6366 93.0588 40.5619 93.4998 39.9825C93.6564 38.6326 93.6845 37.5842 91.9853 37.6895C90.7501 38.094 90.6023 38.7265 90.7726 39.9125Z" fill="#FEFEFE"></path>
<path d="M69.1835 37.224C70.1951 37.361 70.0059 38.6812 70.7106 39.1607C71.4233 39.2858 71.7252 38.1674 72.1969 37.7017C72.428 37.4737 72.6222 37.351 72.8852 37.1709C72.961 38.4477 72.941 39.8438 72.9015 41.1274C72.8953 41.3237 72.8765 41.3603 72.7193 41.4327L72.6059 41.3653C72.4424 41.073 72.5032 38.8989 72.5458 38.4792C71.2661 38.4285 71.4221 40.425 70.8966 40.5182L70.7757 40.3844C70.8534 40.2646 70.859 40.2486 70.8715 40.1066C70.7676 39.9587 70.6041 39.7512 70.4857 39.6103C70.2452 39.3237 70.1017 38.3122 69.6245 38.4905C69.2173 38.9977 69.8894 40.816 69.3495 41.3097L69.2267 41.3022C68.8541 40.9007 68.9129 37.6903 69.1835 37.224Z" fill="#FEFEFE"></path>
<path d="M98.55 37.2192C98.6239 37.2359 98.7849 37.2852 98.8237 37.3513C99.4375 38.3901 100.214 40.3511 100.191 41.5348C99.7551 40.8329 99.5108 40.1536 98.6358 39.9966C98.0752 40.3603 98.2725 39.9986 97.8441 40.0611C97.5359 40.5254 97.2403 40.9976 96.9565 41.4772C96.9653 39.9696 97.5748 38.3712 98.55 37.2192ZM98.5688 39.7996C98.9158 39.7863 99.1294 39.7006 99.4544 39.5944C98.8963 38.9651 98.9139 38.2762 98.3915 37.9046C98.1573 38.2834 97.5879 39.3705 97.9474 39.7279C98.1259 39.7735 98.3928 39.8462 98.5688 39.7996Z" fill="#FEFEFE"></path>
<path d="M103.155 37.2234C104.227 37.5199 104.917 39.4811 105.609 39.5566C105.958 39.0533 105.235 37.5277 105.904 37.3499L106.015 37.4205C106.22 37.7881 106.214 40.9783 105.947 41.3508L105.838 41.3613L105.784 41.2251C105.275 40.2356 104.629 39.3227 103.864 38.513C103.743 38.3846 103.738 38.3785 103.594 38.374C103.297 38.7926 103.725 40.924 103.336 41.3478L103.227 41.3458C102.964 41.0074 102.94 37.5372 103.155 37.2234Z" fill="#FEFEFE"></path>
<path d="M109.862 37.3253C110.345 37.2773 112.254 37.0966 112.125 37.8936C111.798 37.9484 111.027 37.6913 110.657 37.6647C110.349 37.6426 110.054 37.6666 109.748 37.6859C109.726 38.0463 109.74 38.4077 109.747 38.7688C110.381 38.9297 111.461 39.0924 111.931 39.4897C112.187 39.7058 112.156 40.0871 112.17 40.4148C111.959 40.7752 111.711 41.0946 111.386 41.3595C110.978 41.2819 110.229 41.2731 109.789 41.2558C109.593 41.0962 109.247 40.767 109.31 40.5017C109.84 40.3919 110.48 41.5179 111.399 40.7071C111.57 40.5571 111.704 40.5593 111.831 40.2989C111.86 40.1098 111.688 39.9087 111.575 39.7393C110.934 39.552 109.865 39.2522 109.336 38.9186C109.322 38.5286 109.364 38.0434 109.388 37.646L109.862 37.3253Z" fill="#FEFEFE"></path>
<path d="M76.2831 37.3322C76.6896 37.2808 78.4997 37.198 78.7283 37.4715C78.4371 37.7162 77.0685 37.6279 76.6808 37.6119C76.672 37.7442 76.605 38.8153 76.699 38.8542C77.1143 39.027 78.2486 38.8275 78.5837 39.1068L78.5749 39.2063C78.2147 39.365 77.1168 39.1545 76.7052 39.2933L76.6664 39.4227C76.5142 41.9396 77.3823 40.4535 79.0447 41.1661L79.0716 41.1779C78.9927 41.1949 78.9138 41.2091 78.8342 41.2205C78.4321 41.2751 76.7021 41.3683 76.399 41.1418C76.139 40.5315 76.2305 38.058 76.2831 37.3322Z" fill="#FEFEFE"></path>
<path d="M58.569 38.0729C58.4678 37.8577 58.357 37.679 58.3774 37.4443C58.5738 37.1166 58.8546 37.2397 59.1831 37.3168C59.2179 38.576 58.9631 40.2044 59.0196 41.2507C58.8961 41.3857 58.9626 41.3476 58.7431 41.3713C58.3571 41.1004 58.4923 39.8458 58.3552 39.244C57.8921 39.3152 57.2679 39.2921 56.7863 39.2894C56.1804 39.8367 56.5579 39.6859 56.3766 40.1657C56.3209 39.9549 56.3311 39.5968 56.2462 39.3632C56.1799 39.181 56.2882 39.1079 56.4162 39.0079C56.9231 38.9949 57.9307 38.9708 58.3976 39.05L58.569 38.0729Z" fill="#FEFEFE"></path>
<path d="M87.4606 41.3168C87.0121 41.318 85.6955 41.3709 85.3592 41.1865C85.2038 40.7526 85.2458 37.9125 85.294 37.3479L85.4237 37.2847C85.6673 37.3032 85.5959 37.2676 85.7657 37.3861C85.8508 37.7259 85.7575 39.8916 85.7657 40.4302C85.941 40.7325 86.9376 40.4942 87.4468 40.6677C87.2351 40.768 87.0227 40.8561 86.8073 40.9486L86.8198 41.0114C87.0516 41.0932 87.2971 41.147 87.4606 41.3168Z" fill="#FEFEFE"></path>
<path d="M48.7228 24.7395C48.723 24.9508 48.7052 25.1165 48.7985 25.3056C49.2475 25.2349 49.2997 25.4108 49.4555 25.7821L49.5279 25.749L49.5481 25.5779C49.7905 25.6237 49.9792 25.5968 50.205 25.6262C50.1526 25.6323 50.0922 25.6458 50.0449 25.6336L49.944 25.755C49.8971 25.7239 49.8963 25.7103 49.8566 25.7116C50.0978 26.0644 50.0071 26.0699 49.8581 26.439C50.06 26.4818 50.1531 26.4958 50.3603 26.5105C50.0634 26.5403 49.9234 26.5604 49.6299 26.526C49.6737 26.3386 49.5993 26.2824 49.5018 26.07L49.4115 26.0424C49.1451 26.3709 49.4489 27.0434 49.1408 27.0844L48.8868 26.7497L48.8155 26.6921C48.7333 26.8845 48.7336 27.1892 48.721 27.4075C48.6686 27.1107 48.7007 26.7811 48.7164 26.4774C48.3841 26.5214 48.0844 26.5393 47.7509 26.5601C47.8715 26.5177 48.1013 26.4612 48.1678 26.3804C47.9896 26.3132 47.843 26.269 47.6924 26.1492C47.7286 25.9153 47.8875 26.1139 48.0709 25.918C48.0213 25.7751 47.9903 25.787 47.8543 25.6842C48.113 25.7093 48.3863 25.7254 48.6468 25.7451C48.6547 25.3479 48.6626 25.136 48.7228 24.7395Z" fill="#FEFEFE"></path>
<path d="M56.3764 40.1656C56.3833 40.5323 56.4352 41.0476 56.2296 41.3272L56.1121 41.3336C56.0582 41.2602 56.0126 41.1835 55.9846 41.0966C55.8513 40.6831 55.7802 37.5309 55.9305 37.249C56.0623 37.2066 56.4422 37.1979 56.4429 37.3541C56.445 37.8248 56.2637 38.5518 56.416 39.0078C56.288 39.1078 56.1797 39.1809 56.246 39.3631C56.3309 39.5967 56.3207 39.9548 56.3764 40.1656Z" fill="#FEFEFE"></path>
<path d="M48.8867 26.7498L49.1406 27.0845C49.4487 27.0435 49.145 26.371 49.4114 26.0425L49.5017 26.0701C49.5992 26.2825 49.6736 26.3387 49.6298 26.5261C49.596 26.8237 49.5648 27.1003 49.5473 27.4003C49.4891 27.2386 49.4982 27.1461 49.4196 26.9604C49.3526 27.0927 49.3054 27.2162 49.2506 27.3532C49.1576 27.3965 49.1128 27.3737 49.0119 27.3504C48.9604 27.143 48.9249 26.9602 48.8867 26.7498Z" fill="#FEFEFE"></path>
<path d="M87.4466 40.6677C87.5318 40.8808 87.5443 40.9297 87.5775 41.1569C87.5268 41.2536 87.5412 41.2637 87.4604 41.3168C87.2969 41.1471 87.0514 41.0932 86.8197 41.0114L86.8071 40.9487C87.0226 40.8562 87.2349 40.7681 87.4466 40.6677Z" fill="#FEFEFE"></path>
</svg>